<svg id="Layer_1" data-name="Layer 1" xmlns="http://www.w3.org/2000/svg" viewBox="0 0 2073.94 504.66"><defs><style>.cls-1{fill:#fff;}</style></defs><title>logo svg</title><rect class="cls-1" x="1.5" y="1.5" width="2070.94" height="501.66"/><path d="M3533,1778.17v498.66H1465.06V1778.17H3533m3-3H1462.06v504.66H3536V1775.17Z" transform="translate(-1462.06 -1775.17)"/><path d="M1669.71,1845.52q-1.65,3.62-8.25,6.83V1855l-4.24,4q-2.13,2.41-3.77,2.41a8.49,8.49,0,0,1-2.6-.8l-13,13.26-3.3,4.42-11.55,3-5.9,7.43-5.42,2q-2.35.81-10.61,7.84l-2.82-1.61-.48-5,11.08-4.22q2.35-10.05,6-11.35t3.66-1.71V1873l2.36-1.2.94.4,1.18-3h1.88l-1.88-3.62h7.54v-5.83l3.54-.8,2.35-3.22,3.78-1.2,3.53-5.43c1.26,0,2.2-.8,2.83-2.41h2.83l.47-4.22q5-3.62,5.89-8.23Q1667.35,1837.48,1669.71,1845.52Zm47.86,206.94-1,4-4.48,2.81-1.88,5-6.6,1.6q-3.08,8-6.84,10.25l-5.89,1.81-5.19,4.82q-1.89.81-8.25,7.43h-3.3q-3.3,4-10.61,4.62-5.19,5.43-5.89,6.43a27.54,27.54,0,0,1-9.08,2.92c-3.69.6-6,1-6.95,1.3l-1.89,2.41H1632l-4.25,2.82-12-7.64-6.84-13.26-.94-21.3-1.41-4.21,4.71-33.76,3.07-2-1.42-21.09a19.31,19.31,0,0,1,1.3-7.14,58.21,58.21,0,0,0,2.47-9.14l1.89-1a23.12,23.12,0,0,0-3.3-11.45l1.88-5.43v-7.63l2.36-2.62a49.13,49.13,0,0,0-1.65-6.53,33.23,33.23,0,0,1-1.18-4.12q0-3.21,1.89-3.21a1.42,1.42,0,0,0,.94.4q-3.3-6.42-3.3-8.24c0-2,1.1-3,3.3-3a8.69,8.69,0,0,1,3.18,1.11,8.92,8.92,0,0,0,3.66,1.1,9.32,9.32,0,0,0,2.35-.8q0-3.42,3.31-3.42c1.88,0,2.94.3,3.18.91a68.63,68.63,0,0,1,1.29,7.73l5.19,2-4.24,4.62-5,26.32,4,6.63q0,4.62-4.47,7.84l-1.42,5.22,1.42,4.62-5.66,16.88.47,2-2.36,13.66v9.85l-3.53,6.63.94,5.62-.94,9.44q0,11.26,4,18.49l-.47,2.21,4.24,2.41,5-1.21,5.65,2,6.84-2.81a23.57,23.57,0,0,1,8.25-3l3.3-2.82.94,1.21,2.83-3.21,5-1.21a30.54,30.54,0,0,1,12-5.42c1.1-1.74,3.38-2.82,6.84-3.22l2.83-3.82,5.42-.4-1.18-4.42h2.12l1-2.21,10.13-4.42,1-5,9.19.4A14.71,14.71,0,0,1,1717.57,2052.46Z" transform="translate(-1462.06 -1775.17)"/><path d="M2051.12,1933.12l-6.13,8.23,1,6.43,2.35-.8q0,2.82-3.3,9.44l-2.82,5.43v21.09l-5,9.45.94,6-4.24,18.68,1.88,4.82-3.77,14.87.94,6.63-3.53,10.65,3.53,10.25-7.78,10.24,1.89,5.83-4.24,7,2.35,4,1.89,19.29,3.3,6.23a13,13,0,0,0-5.19,5l-4.48-.81-2.35-20.29-3.3-.8a70.79,70.79,0,0,1-.59-7.33q-.12-3.72-.36-7.34v-8q0-4.43-1.41-6.63l-3.07-5.23-9.19-1.2-5.18-5.43-2.36,2.61-4.48-4.62-7.78,2-9.43-6.43-5,.81-9.66-1.61-5.66-5-3.54.81-29.46-16.07-3.3-3.62-10.14-3.82-6.37-6.83-5.65-2.61-7.78-6.63-21.69-8-15.56-16.88-6.6-.4-3.53-4.62q-6.61-2.42-15.33-11.05h2.36a29.31,29.31,0,0,1-7.78-9.44l-3.3-1h-.94q-5.19,0-6.72,2.82t-3.42,12l-4.48,21.1,4.48,12.65-6.83,21.1q2.82,12.66,2.83,13.86v1.61a10.78,10.78,0,0,1-3.07,8q-3.06,3-3.06,4.42,0,1,6.13,2.81l-2.83,8.64v10.25L1793,2087l2.36,4.42-2.36,3q-.95,12.26-6.37,19.29h-3.3q-5.89,0-5.89-7.83v-1.61l5.89-16.08-2.35-6.63,3.3-8.63-3.3-3.22,3.77-6.63-5.42-6.23a34.85,34.85,0,0,0,1.18-7.83,49.59,49.59,0,0,0-1.18-9.05l2.12.81,1.88-4-4-6.23,4-9.44-2.35-12.26,3.3-13.26-2.83-9,3.3-19.69-.47-15.27,2.35-14.06-2.35-4.42.47-19.89,5.42-1.21q-6.36-5.22-6.36-9.44,0-2.41,2.82-4.42l8.73,1.6,2.35-2.81q4.49,3,4.48,6.43,0,2.41-2.59,5.83h6.84l.94,9.44,5.89,4.22.94,6,7.78,4.22,2.6,8.44a12.7,12.7,0,0,0,5,7.23l16,9.84v.81q0,3.21,5,7.43l11.08,6.43,12,12.06,37.72,26.72h4.24c3.45,2.41,5.66,4.62,6.6,6.63s1.8,3.08,2.59,3.21l15.32,4.22,12.26,8.64,7.07,2,13.68,6.63,13,3.21q12,10.26,20.27,10.25l7.31-1.61h1.42l.94-11.45,6.84-12.45-3.54-2.82,1.41-19.29,5.43-7-.71-4.62q-.24-2-4.72-8.24l5.43-16.07-2.36-15.07,4.71-29.33-5.65-5.23,6.6-16.87-2.36-2.21,3.3-3.62-.94-2.81,7.3-3,1.42,3L2045,1897a24.34,24.34,0,0,0-1.41,7.64,11.45,11.45,0,0,0,2.36,7.13q2.36,3.12,2.35,4.12l-3.3,7.83Z" transform="translate(-1462.06 -1775.17)"/><path d="M2324.81,1895.14h12.73a45.09,45.09,0,0,1,7.54-1.6c3,0,4.48,1.27,4.48,3.81q0,2.82-4.95,2.82h-1.89l-6.83,3.21-8.49-2.41-12.26,5.83-5.18-2.21a17.66,17.66,0,0,0-7.78-1.61,34.06,34.06,0,0,0-5.9.8,33.5,33.5,0,0,1-6.13.81h-.94l-5.89-.81-10.14,3-4.24-.4-1.89,1.2-22.39.4-5.66-.8-1.89,2.81-7.77-2-5.19,2.21q-2.59,1-9.9,1l-6.6-1.21a41.32,41.32,0,0,0-9.31,1,117.2,117.2,0,0,1-15.44,1.8l-4.25,3.82-2.83-.8c-1.1,1.2-1.65,3.08-1.65,5.62q0,5,7.31,19.09l-3.77,9.44,3.77,2.41-3.77,5a4,4,0,0,1,3.77,4.42l-2.35,8.24-1.42,16.47.94,6.23,17.45,2,13-2.81,4.25,2q1.41.81,11.08.81a9.45,9.45,0,0,0,7.3-2.81l9.2-1.81,11.08,3.41c7.69-1.33,12.17-2,13.43-2a30.3,30.3,0,0,0,7.78-1.4l5.89,1.81,7.78-1.81,4.25,2.21c7.38-.27,11.67-.54,12.84-.81a17,17,0,0,1,3.66-.4,34.47,34.47,0,0,1,4.24.4,34,34,0,0,0,3.77.41,6.22,6.22,0,0,0,4.95-2.62l12-1.2,4.95,1.2a8.66,8.66,0,0,1,3.3-.8l5.18,1.61h2.59l-.94,2.21q-5.41.19-13.67,4.82h-6.6l-4.48,2.61-11.08-1-9.43,2.81q-10.85,2.61-14.61,2.61l-7.78-2-1.89,2-14.61-1.61-5.66,2.41-8.72-.8-6.84,1.41a60.29,60.29,0,0,1-11.08,1.4h-3.3a19.44,19.44,0,0,0-7.78,2.21l-5.42-3-2.36-.4q-2.82,0-13.91,4.22l-9.19-1.21-3.77,1.21-6.84-1.21q-3.06,0-5.89,23.71a76.6,76.6,0,0,1-.94,12.46q2.82,4.62,1.88,6.63l-5.18,13.06,2.83,5-3.3,5.22,1.41,6.63-1.89,3.22a6.49,6.49,0,0,1,.48,3q0,5.23-3.78,17.48t-6.83,24.92l-5.42-2.62h-3.3l.94-4.82V2119l2.36-2,.47-5q0-2.4,3.53-8.84l-3.53-2.21v-4.42l-2.36-2,3.77-6.23-4.24-1.2a43.58,43.58,0,0,1,2.59-7.23,17.66,17.66,0,0,0,1.65-4.42v-.81l-1.88-2,.47-2.81-1.42-6.23,2.83-6.63-1.41-16.07,3.53-16.08-2.12-6.42v-7.44q0-3.21-3.77-4.62l-13,4.62-9.67-4.62-9.19,1.21a7.58,7.58,0,0,1-2.83.4q-3.54,0-3.54-5.63c0-3.61.79-6.23,2.36-7.83s4.79-2.41,9.66-2.41q6.38,0,11.32.4l14.38,1.2h3.3q5.89,0,7.78-7l-2.36-5.42v-19.29l-2.36-.4,1.89-22.31-5.42-12.25-.47-8.24-13.44-5.42-11.08,6.22-4.48-5.22c-2.83-.53-4.56-1.81-5.19-3.82q2.36-2.4,2.36-10.65a23.2,23.2,0,0,0,12.38-3.11c3.38-2.07,6.16-3.11,8.37-3.11l13.43,1.2c1,0,4-.13,9.2-.4l23.81-1.21,16.26,2,16.5-.8a42.3,42.3,0,0,0,4.13-1.81,12.41,12.41,0,0,1,2.24-1,13.74,13.74,0,0,1,2.71.8,18,18,0,0,0,2.47.8h.95q1.17,0,18.38-2.41l.47,2.41a4.51,4.51,0,0,1,3.3-2q2.36,0,5.43,3.21l3.3-1.21,12.73-1.2h.94l28.29,3.21a59.55,59.55,0,0,1,13.67-1.6A11.41,11.41,0,0,1,2324.81,1895.14Z" transform="translate(-1462.06 -1775.17)"/><path d="M2668,1888.71l-3.77,2.82v6.63q-8,1.2-11.32,5a12,12,0,0,1-7.07,4.42c-.47,3-1.89,4.42-4.24,4.42l-12,9-5,7h-4.24q-4.71,7.44-7.78,9.45c-5.18,1.87-8.41,3.41-9.66,4.62l-10.14,10.24-7.31,4.63a42.51,42.51,0,0,1-10.6,4.42l-4.72,7.83-6.6,3.42q-3.06,1.6-10.37,8l-4.95,10.85-16.74,17.68a88.73,88.73,0,0,0-11.08,16.88l2.83,4.42-2.83,6.63,2.36,7.84-3.3,9,1.88,10.65,3.31,3.21q-5.67,6.84-5.66,13.66c0,3.89-.71,6.9-2.12,9q1.88,11.25,1.41,13.66l-3.3,19.29.47,9.44-1.88,4.22,3.3,14.67-4.25,6.22,2.83,7.84-2.83,4q5.9,8.43,4.48,11.85-3.54,9.24-3.53,10.45l2.83,11-4.72,10.25,5.19,6.63-1.42,14.86q-.71,7.24-6.13,8.64l-3.06-14.06-3.77-12.26-1-11.45-3.53-1.81,2.59-4.82-2.59-7,2.59-12.86-3.53-13.46,1.41-11.45-.47-2.61.47-9.05-1.89-19.28,1.89-9.05-1.41-10.64,3.53-19.09-4.48-6.83,1.89-8.24q0-9.84-3.3-16.47,3.77-6,3.77-10.65,0-3.21-7.07-24.72a32.07,32.07,0,0,1-10.14-10,11.77,11.77,0,0,1-6.84-3.62l-14.37-14.87-7.31-3.61-6.37-9.85-18.38-15.67-3.3-5.83-9.2-9.84-11.55-8.24v-4.42l-5.66-3.62a14.5,14.5,0,0,1-4.95-4.62l-4.24-6.63q-1.18-2-7.78-4.22-14.15-6.42-14.14-21.29l.47-3.82h4.48c.31-1.87,1.73-2.81,4.24-2.81a54.93,54.93,0,0,1,12.26,2l2.36,6.63,9.19,3.41,7.54,10.65,10.85,6.63.47,8.64q0,3.21,7.07,4l4.95,6.63,7.07,4.82,23.34,29.74-.94,3.21,5.18,1.61,6.84,7.83,24,19.9a26.57,26.57,0,0,1,5.54,5.62c2,2.55,3.34,3.82,4.13,3.82a39.89,39.89,0,0,0,4.24-3.52q4-3.51,10.37-13.36c1-5,2-7.43,3.3-7.43h3.3c1.42,0,2.13-.81,2.13-2.41v-1.41c0-1.61,2.19-3.88,6.6-6.83l-.47-1.41q0-3.62,10.6-7.63l4.48-5.83v-.8q0-4.43,11.08-5,3.77-1.61,3.77-3.61a3.34,3.34,0,0,0-.47-2c5-.81,8.49-2.14,10.37-4l8-8a43.5,43.5,0,0,1,11-12.55q6.24-4.73,7.43-4.73h.94l4.24-5q1.89-2.42,8.72-6.43l1.89-6.23a9.37,9.37,0,0,0,4.48.81q4.24,0,4.24-6.23v-.4c0-1.07,2.43-2,7.31-2.82l-1.42-2.41,5.66-2h5.42l2.83-7,11.55,1.21,3.54-1.21,2.83,5.23Z" transform="translate(-1462.06 -1775.17)"/><path d="M3041.9,2079.18q1.88,4.43,1.88,5.63c0,1.2-1.45,2.78-4.36,4.72s-6.25,4.25-10,6.93l-5.42-1.61-6.36,8.24a40.7,40.7,0,0,0-14.85,3.62l-13.91-2.81-7.78,2.81-2.36,3.62q-6.84-4.42-8.72-4.42c-.63,0-.94.4-.94,1.2l-2.6-.4-4.24,3.62-4.24-4.42-3.54,1.2a13.64,13.64,0,0,0-7.78-2.81h-15.32l-4.48-4.22-5.19.8-7.77-3.61-4.72,2-3.53-4.82h-7.08l-4.48-4.62h-5.65c-.47,0-1.46-1-3-3a18.19,18.19,0,0,0-6.72-5.23l-14.61-6.63a39.12,39.12,0,0,1-19.8-18.08h-5.66l-7.78-8.24-14.14-9.44-15.8-15.67-4.48-1.21-7.31-6.63q-1.17-1.2-9.9-3.61a13.72,13.72,0,0,1-5.89,1.6,9.12,9.12,0,0,1-4.71-1.6v.4c0,.27-.32.4-1,.4h-4.95l-4.71-5.83c1.73-1.6,2.83-4.35,3.3-8.23l5.89-1.61v-2.41l6.13-1.21a10.87,10.87,0,0,1,5.89-2,9.38,9.38,0,0,1,4,1,10.1,10.1,0,0,0,2.59,1q.72,0,1.65-1.2,2.13,7.42,20.28,7.43,15.78,0,24.51-2.61V1996l36.31-1.2a65.46,65.46,0,0,1,26.4-5.43l3.06.81,8-2.41,2.12-2.41,5.66.4,7.3-2.41h5.19c2.67,0,4.32-.24,5-.71s.94-1.5.94-3.11v-1.61c3.93-.4,5.9-.93,5.9-1.61q18.15-4,18.15-13.66,0-4.62-5.19-9l-16-13.06h-3.77q-11.09-5.82-14.14-5.83h-4.72l-9.66-3.61h-5.9l-6.13-4.22h-11.08l-4.47-1.61-26.41-1.61-4.47-2.21-2.83,1.41-5.43-1.41-5.18,1.41-14.14-1.41-14.38,2.21-7.78-2.21-8.73.81-7.54-.81-5.89,2.21-4.25-1.4-8.72,4.62-6.83-.81a49.16,49.16,0,0,1-7.31,10.25l3.06,5.83-1.41,23.91,3.3,20.49q-5.19,14.26-5.42,17.68l-3.3,52.64,3.77,30.14-2.83,16.07v4q0,3.21-9.19,3.22h-1.89l2.36-15.88-2.36-6.23-4.24-16.87,2.83-1.61q-5.9-6.22-5.9-8.24,0-3.81,5.42-8.23l-4-6.64h-.47c-.63,0-.95-.13-.95-.4q0-2.2,5.9-11.45a10.09,10.09,0,0,1-3.3-7.84l1.41-6.63v-3.21q3.3-5.22,3.3-8.64,0-3.81-3.3-9.64l3.3-6.83-1.41-6.23,2.83-2a6.62,6.62,0,0,1-1.42-4.22q0-3,3.3-9.85l-4.71.81-2.83-11,2.35-7.84-2.35-16.88,2.35-2q-7.55-6.63-11.55-6.63h-1.41l-3.54,2.82-11.08-.81-7.3,7.84a22,22,0,0,0-9.2-4q-3.76-4.22-3.77-6.63a8.08,8.08,0,0,1,1.06-3.92,10.16,10.16,0,0,1,3.66-3.51l6.36-3.62,14.62-1.41,19.8-.8,4.24-2.81V1908q0-6.23,11.08-6.23h5.89q2.6,8.64,8.72,8.64,1.42,0,10.14-3.61l12,2.41,18.86-2.41,25,2.41,35.36.8,17.68,2.81h13.67l5.19,3.82a3,3,0,0,1,3.06-2.41q1.89,0,4.72,2.41a6.75,6.75,0,0,0,1.88,4.82l5,.81V1917l19.33,6.63,6.6,4.42,1-1.2c2.82,1.47,7.07,2.41,12.72,2.81l3.31,3.42,4.24.8q7.77,10.24,11.9,15.27t4.13,9q0,7.44-7.43,13.06a180.13,180.13,0,0,0-16.15,14.07l-4.95.2-3.77.2q-1.41,0-8.25,2.81l-1.88,3.42h-13.68l-3.77,2.81a14.13,14.13,0,0,1-4.48,1.81l-7.07,1.81a31.21,31.21,0,0,0-21.69,8.63l-7.77-4.42-6.84,2.82a7.77,7.77,0,0,0-3.77-1.21q-2.84,0-7.31,3.62l-6.6-2.41-6.36,2.41-2.36-2.41-8.72,4.22-11.56-1.21a35.37,35.37,0,0,0-7.3.8l4.71,5.63,11.79,8.64,3.3,5,18.86,12.26,4.24,6.63,3.06,3q1.43,1.22,6.13,11.05l13,.4,14.61,12.66,7.78,3,10.61,5.62,10.14,2.61,14.38,4.83,5.42-.81,2.36,1.61.94-.8,1.88,2.81,6.84-1.21,1.42,4.22,5.42-3,5.65,1.4,16.51-1.4,6.6,1.4,23.33-3.41,17.21-4,1.18,2.41,3.3-5h7.31Z" transform="translate(-1462.06 -1775.17)"/><path d="M3351.17,2005q0,3-3.29,4.22l-7.78-2.21-8.73,5.83-10.13-1.2a26,26,0,0,1-13.44,3.61q-5.65,0-7.31,2.21a31.7,31.7,0,0,0-11.08-2.21q-4.95,0-6.36,3a8.84,8.84,0,0,0,3.53,3.61l-1.41,4.22,1.41,13.86,6.13,7.84,1.18,7.43,10.61,13.26-1.65,6,7.31,5.83,11.08,16.07q8.72,8.64,10.13,12.26l8.73,3.82,3.3,6.42,3.53,2.21-6.36,4-7.78-5.22h-4.72l-6.36-4.22H3317l-4.47-7-4.72-2a56.62,56.62,0,0,0-12.49-15.27v-4l-4.48-3.41-.47-6.43-7.31-6.63-10.14-20.7-3.3-3.62-1.65-10.24q-.24-1.61-6.13-9.45v-8.63h-5.65l-6.37,3.61-9.66-1.61-6.6,3.62-2.6-2-5.18,2.81-1.42-2.81a20,20,0,0,0-4.83,1.21,25.2,25.2,0,0,1-7.9,1.2l-6.13-.4h-8.25l-8.25,4.62-8.72-1.61-12,.81v2l-4.24-2-5.9,2.81-4.24-2.81h-7.78l-7.78,2.81-6.36-5.83-3.3,2.21-6.84-2.21q-8,3-22.16,21.1l-7.78,1.61q-19.34,25.32-20.74,25.52l-4.25,2-13.43,14.87h-2.59l-11.56,16.08-12.49,6.63-9.66-2.21,1.88-3.62v-5.83l3.54-3.61-1.65-2.82,8.72-1,5.89-2.81q7.78-2.82,9.67-10.25,9.9-2.2,11.55-9.44,11.55-5.62,15.56-18.49l6.6-2.21,15.55-20.49v-5.83a13.5,13.5,0,0,1-4.95-6l9.2-7v-3l11.08,1,6.36-3.41,1.42,1.6,6.36-7.23c-1.41-.27-2.12-.87-2.12-1.81,0-.67,2.28-2.27,6.84-4.82l1.88,2.41c.31-3.34,2-7.3,4.95-11.85l-1.41-.81,5.66-.4,1.88-5.42q5.89-.6,5.89-4.22v-4.82q11.55-8.44,11.55-15.68v-.8l6.37-.8,1.41-5.83,3.3-.8,4.95-8.64,3.3,2-2.35-4.42q7.06-.61,7.78-7.84l3.3,1.61v-8.24h3.3v-5.83q.93-.79,5.42-4.11a14.45,14.45,0,0,0,5.66-9l5.42-4.62-3.3-6.43q6.6-7.43,12.49-7.43h.94l2.83-3.82,3.3,4.22a14.56,14.56,0,0,0,4.25,2.61l8,3.42,1,10.45c2.19,1.6,4.24,4.35,6.12,8.24l4,1.2.94,9,3.78,12.26,6.36,9.44,4.24,13.26,1,8.64,6.83,7.84-1.88,3.21,5.18,5v6.23l1.18,5.63q0,1.61-2.12,4.22,7.31,14.67,17,14.66l9.2-1.6h11.07a40,40,0,0,0,8.73,1.2q6.12,0,9.54-2.41t4.37-2.41q1.41,0,8.72,3.62Zm-91.69-10.24q-3.08-6.83-7.78-9l2.59-5.83-6.36-2.81-1.89-15.67-5.89-7.84-1-6.63-3.3-5.63v-2.21h-1.41l-.94-8.84c0-.93-.87-2.41-2.6-4.42l-3.3-4.42a15.72,15.72,0,0,0-3.89-3,61.31,61.31,0,0,0-9.07-4.22l-5.42,2.41-3.3,4.82-11.55,14.07-2.83,4.62q-1.18,2-11.32,10.65l-1.89,6.63-10.13,4.42q-3.54,15.68-14.38,18.08l-4.48,12.46-9.66,3.21v4.22l-1.42,5.22q8.49,2.22,12,4.22l5.9-.4,9.66,2a17.14,17.14,0,0,0,4.24.81,45.66,45.66,0,0,0,6.84-.81,3.06,3.06,0,0,1,1.89-.4,21.35,21.35,0,0,1,3.65.8,20.91,20.91,0,0,0,5.54.81l6.37-1.21,18.85-1.2,15.33-1.81q14.85,1.8,18.85,1.81,11.09,0,11.08-4.22c0-1.74-1.41-4.09-4.24-7Z" transform="translate(-1462.06 -1775.17)"/></svg>